<svg version="1" xmlns="http://www.w3.org/2000/svg" width="1834.667" height="1834.667" viewBox="0 0 1376.000000 1376.000000"><path d="M684.9 266.8c-1.5 1.5-9.7 9.4-18.3 17.7-8.6 8.2-19.8 19-25 24-29.2 28.2-38 36.5-38.7 36.5-.5 0-.9.4-.9 1 0 .5-2.1 2.9-4.6 5.2-2.6 2.4-7.3 6.8-10.4 9.8-3.2 3-14.7 14-25.5 24.5-10.9 10.4-21.9 21-24.5 23.5-2.6 2.5-14 13.5-25.5 24.5s-22.1 21.3-23.7 22.9l-2.8 2.9 3.2 1.2c21 7.5 36.7 14.4 45.3 19.7 12.9 8.1 26.7 20 36.3 31.2 8.5 10 20.7 31.2 24.2 42.1.7 2.2 1.7 4.6 2.3 5.2.5.7.6 1.3.2 1.3-.4 0-.2.7.5 1.5s1 1.5.6 1.5c-.3 0-.1 1.1.4 2.5.9 2.4 1.3 3.8 2.5 10 3.6 17.9 3.9 35 1 54.5-1.1 7.3-5.2 22.9-6.5 24.5-.4.5-1.4 3-2.1 5.5-.7 2.5-1.5 4.7-1.9 5-.3.3-2.3 4.1-4.5 8.4-2.2 4.4-4.5 8.4-5 9-.6.6-2.3 3-3.8 5.4-1.5 2.3-3.5 5.2-4.5 6.4-5.3 6.6-18.2 20.1-18.2 19.1 0-.3-.8.3-1.7 1.3-1 1.1-3.6 3.3-5.8 4.9-2.2 1.7-4.2 3.3-4.5 3.6-2.6 3-31 17.9-34.2 17.9-.9 0-1.8.4-2 .9-.4 1.1-24.2 7-30.1 7.5-2.5.2-4.9.6-5.3.8-1.1.6-30.2.2-32.9-.5-1.1-.2-4.2-.8-7-1.2-2.7-.5-5.2-.9-5.5-.9-1.5-.4-10.7-2.9-12-3.3-.8-.4-1.9-.7-2.5-.9-.5-.1-4.5-1.6-8.8-3.4-18.3-7.3-33.8-17.9-48.7-33-7.9-8-8.2-8.4-14.5-17-15.4-21-25.9-49.3-27-72.7-.2-3.5-.6-6.7-.9-7.2-.4-.5-.2-1.2.3-1.5.6-.4.6-1.8.1-3.5-.4-1.6-.6-3.2-.4-3.4.3-.3.7-2.9 1-5.8.2-3 .6-7.2.9-9.4 2.1-15.5.4-22.5-6.4-27-3.3-2.3-23.1-10.8-23.1-10 0 .2-3.5-1-7.7-2.7-4.3-1.7-9.6-3.6-11.8-4.4-2.2-.7-7.1-2.5-11-3.9-3.8-1.5-8.1-3.1-9.5-3.5-1.4-.5-6.8-2.4-12-4.3s-21.4-7.9-36-13.2c-14.6-5.4-27.1-9.8-27.7-9.8-.7 0-1.3-.4-1.3-.9 0-.4-.3-.7-.7-.6-.5 0-1.5-.1-2.3-.5-3.3-1.2-18.6-6.8-19.5-7.1-.5-.2-1.9-.6-3-1-1.1-.5-4.5-1.7-7.5-2.8-3-1.1-6.4-2.4-7.5-2.8-1.1-.5-3.1-1.2-4.5-1.5-1.4-.4-3.8-1.3-5.5-2-1.6-.7-8.2-3.2-14.5-5.5-13.2-4.8-20.6-7.5-23.5-8.6-1.1-.4-2.4-.8-3-1-.5-.1-6.3-2.3-12.7-4.7-6.5-2.5-11.8-4.3-11.8-4.1 0 .1-1.2-.3-2.7-1.1-1.5-.8-8.6-3.3-15.7-5.6-7.2-2.3-13.8-4.4-14.6-4.6-.8-.3-2.9-.7-4.7-.8l-3.2-.3 2 5.2c2.8 7 29.2 60 30.1 60.4.5.2.8.9.8 1.5 0 1 8 17.7 9 18.7.3.3 19.2 37.8 42 83.5 22.8 45.6 42 83.7 42.7 84.5.6.8 1.2 1.8 1.2 2.3.1.7 15.1 31.3 16.7 33.8.4.8.9 2.1 1.1 2.9.1.8.7 1.6 1.2 1.8.6.2 1.1.9 1.1 1.5 0 1.2 36.5 74.6 38 76.4.5.7 1 1.5 1 1.9 0 1.2 35.5 71.9 36.5 72.6.6.4.7.8.3.8-.8 0 14.6 30.3 17.5 34.5 4.5 6.4 11.7 10.3 20.1 11 6.4.6 828.3.8 831.6.2 4.5-.7 10.4-3 14-5.2 3.5-2.2 10.5-8.5 9.5-8.5-.3 0 .3-.9 1.4-2.1 1-1.1 3.8-5.9 6.2-10.7 2.4-4.8 4.8-9 5.2-9.3.5-.3.8-.9.7-1.3 0-.4 18.8-38.6 41.9-85 23.2-46.4 42.1-84.8 42.1-85.4 0-.6.3-1.2.8-1.4.8-.3 25-48.8 25-50.2 0-.5.4-1.2.9-1.5.9-.6 5.7-10.1 5.8-11.3 0-.4.6-1.5 1.2-2.5 2.3-3.3 29.3-57.7 29.3-58.9 0-.7.4-1.4.8-1.6.5-.2 6.7-12 13.8-26.3 7.2-14.3 13.7-27.1 14.4-28.5.8-1.4 1.5-3.1 1.6-3.9.2-.8.8-1.7 1.4-2.1.7-.4 1.1-1 1-1.4-.2-.9 20.3-41.9 21.3-42.7.5-.3.8-.9.8-1.3-.1-.3 4.3-9.5 9.8-20.4 9-18.1 15-32.6 13.8-33.8-.2-.2-8.5 2.5-18.3 6.2-9.8 3.6-23.3 8.5-29.9 10.9-6.6 2.4-13.3 4.9-15 5.6-1.6.7-3.3 1.3-3.7 1.3-.3.1-1 .4-1.4.8-.4.5-1.8.8-3.1.8s-2.3.5-2.3 1.2c0 .6-.3.9-.6.5-.3-.3-2.6.3-5 1.3-2.4 1.1-4.8 2-5.2 2.1-.8.2-2.5.7-4.9 1.5-1 .3-2 .5-2.3.6-.3 0-1.4.5-2.5 1.1-1.1.6-2.4 1.2-3 1.4-4.2 1-17.1 6-17.7 6.8-.4.5-.8.7-.8.3 0-.3-2.4.3-5.2 1.4-7.8 3-48.1 17.9-49.3 18.2-.5.2-1.7.6-2.5.9-1.2.6-36.6 13.6-52.2 19.2-2.1.8-3.8 1.2-3.8 1 0-.3-1.5.3-3.2 1.3-1.8 1-7.1 3.1-11.8 4.6-4.7 1.6-9.1 3.3-9.7 3.9-.7.5-1.3.6-1.3.2 0-.4-.7-.2-1.5.5-.8.6-1.8.9-2.4.6-.5-.3-1.1-.1-1.3.4-.2.6-1.6 1.3-3.3 1.6-1.6.3-3.4.9-4 1.3-.5.5-4.4 2-8.5 3.4s-10.6 3.7-14.5 5.2c-9.3 3.4-10 3.7-10 3.4 0-.1-1 .3-2.1.9-1.7.9-2.1 1.8-1.7 4.4.3 1.8.6 13.4.6 25.8.2 25.8-.6 34.7-4.4 50.5-.5 2.2-1.2 4.9-1.4 5.9-.8 3.4-3.6 12-4.9 15.1-6.1 13.9-13.9 28.3-18.1 33.2-.5.6-2.1 2.6-3.5 4.4-2.6 3.5-14.2 15.3-17.6 18-6.5 5.1-13.6 10-18.4 12.6-7 3.9-12.4 6.7-13 6.8-.3.1-1.8.8-3.5 1.5-1.6.7-3.4 1.4-4 1.6-.5.2-3.2 1.1-6 2-6.2 2-7.9 2.5-8.2 2.5-.2 0-1.7.5-3.5 1-1.8.6-4.4 1.2-5.8 1.5-1.4.2-3.6.7-5 1-10.8 2.5-38.8 2.4-51.9-.1-1.2-.2-4.9-1.1-8.4-2-3.4-.9-6.9-1.8-7.7-2-6.4-1.5-31.4-12.9-34-15.5-.3-.3-2.5-1.8-5-3.4-6.8-4.4-13.7-10.2-21.5-18.1-7.5-7.6-13.5-14.4-13.5-15.2 0-.3-1.3-2.2-3-4.3-1.6-2.1-3-4.3-3-4.9 0-.6-.3-1.1-.7-1.1-.5 0-1.3-1-1.9-2.3-.6-1.2-2.4-4.7-4-7.7-3.7-6.8-9.5-20.7-9.7-23.2-.1-1-.4-1.8-.7-1.8-.4 0-.7-.6-.8-1.3-.1-.6-1.2-5.7-2.6-11.1-3.8-15-5.2-33.5-3.4-45.6 2-12.9 2.5-15.3 5-22.5 8.9-26.2 26.8-49.6 55.1-72.2 10.1-8.1 30.9-22.3 32.6-22.3.6 0 1.1-.4 1.1-.9s2.1-1.9 4.8-3.2c2.6-1.2 4.9-2.5 5.2-2.8.3-.3 3.1-2 6.2-3.6 3.2-1.7 5.8-3.4 5.8-3.8 0-.5-6.4-7-14.2-14.5-7.8-7.5-17.6-17.1-21.9-21.2-4.2-4.1-16.4-15.8-26.9-26-10.6-10.2-22.9-22-27.4-26.3-4.5-4.3-16.6-16-27-26-10.3-10-22.3-21.6-26.6-25.7-4.3-4.1-15.5-14.9-24.9-24-9.5-9.1-20.3-19.5-24-23.3-3.8-3.7-7.3-6.7-7.7-6.7-.5.1-2.1 1.3-3.5 2.8zM188.7 993.6c-.1.1-2.4.5-5.2.8-17.4 2.3-35.3 19.2-40.9 38.6-2.5 8.7-2.9 12-2.8 20.5.3 20 7.3 35.7 21.4 47.5 6.2 5.2 15.1 9.6 20.8 10.3 1.4.1 3 .5 3.5.8 1.1.6 1003.7.2 1007.5-.4 1.4-.2 3.4-.7 4.5-1.1 1.1-.5 3.4-1.3 5-1.9 1.7-.5 4.5-2.1 6.3-3.4 1.7-1.3 3.2-2 3.2-1.6 0 .4 3-2.4 6.8-6.3 7.6-8 12.1-15.9 15.2-26.8 2.1-7.7 3.4-23.3 1.9-24.2-.5-.2-.6-1.1-.3-1.8.8-2.2-2.5-13.5-6.2-21.2-6.6-13.7-20.5-25.2-34.4-28.5-4.5-1.1-97.5-1.3-505.8-1.3-275.2-.1-500.4 0-500.5 0z"/></svg>