<?xml version="1.0" encoding="UTF-8"?>
<svg width="403px" height="54px" viewBox="0 0 403 54" version="1.1" xmlns="http://www.w3.org/2000/svg" xmlns:xlink="http://www.w3.org/1999/xlink">
    <!-- Generator: Sketch 46 (44423) - http://www.bohemiancoding.com/sketch -->
    <title>Group</title>
    <desc>Created with Sketch.</desc>
    <defs></defs>
    <g id="Page-1" stroke="none" stroke-width="1" fill="none" fill-rule="evenodd">
        <g id="Group" transform="translate(0.000000, -17.000000)">
            <text id="DADDLY" font-family="Optima-ExtraBlack, Optima" font-size="72" font-weight="700" fill="#FFFFFF">
                <tspan x="94" y="69">DADDLY</tspan>
            </text>
            <path d="M66.326,36.109 C67.066,42.153 64.579,46.415 59.716,47.65 C55.206,48.796 50.609,46.382 48.932,41.99 C47.03,37.013 49.155,33.025 55.626,29.611 C51.342,25.479 47.086,21.381 43.03,17.469 C38.935,21.4 34.702,25.467 30.301,29.697 C31.103,30.002 31.597,30.176 32.086,30.375 C36.485,32.17 38.764,37.133 37.281,41.659 C35.818,46.154 31.006,48.81 26.393,47.667 C21.863,46.545 18.804,41.991 19.621,37.416 C19.826,36.278 19.404,35.951 18.483,35.617 C13.011,33.64 7.557,31.616 2.089,29.617 C1.686,29.469 1.258,29.391 0.6,29.216 C0.848,29.783 0.959,30.076 1.096,30.351 C5.899,39.906 10.719,49.448 15.473,59.028 C15.987,60.062 16.686,60.139 17.634,60.137 C34.485,60.125 51.347,60.115 68.197,60.163 C69.56,60.166 70.257,59.733 70.859,58.516 C75.553,49.029 80.327,39.577 85.073,30.111 C85.197,29.868 85.24,29.587 85.397,29.1 C78.862,31.499 72.574,33.809 66.326,36.109 Z" id="Shape" fill="#009DF6" fill-rule="nonzero"></path>
            <path d="M74.035,63.099 L11.964,63.099 C10.17,63.099 8.715,64.763 8.715,66.815 C8.715,68.868 10.17,70.531 11.964,70.531 L74.035,70.531 C75.829,70.531 77.284,68.868 77.284,66.815 C77.284,64.763 75.829,63.099 74.035,63.099 Z" id="Shape" fill="#009DF6" fill-rule="nonzero"></path>
        </g>
    </g>
</svg>